<svg xmlns="http://www.w3.org/2000/svg" width="1280" height="720" viewBox="0 0 1280 720">
  <rect width="1280" height="720" fill="#f8fafc"/>
  <rect x="56" y="48" width="1168" height="624" rx="24" fill="#ffffff" stroke="#cbd5e1" stroke-width="3"/>
  <rect x="56" y="48" width="1168" height="72" rx="24" fill="#e2e8f0"/>
  <rect x="96" y="73" width="152" height="22" rx="11" fill="#64748b"/>
  <rect x="930" y="73" width="88" height="22" rx="11" fill="#94a3b8"/>
  <rect x="1042" y="73" width="88" height="22" rx="11" fill="#94a3b8"/>
  <rect x="1154" y="73" width="32" height="22" rx="11" fill="#94a3b8"/>
  <rect x="96" y="160" width="392" height="48" rx="12" fill="#334155"/>
  <rect x="96" y="230" width="520" height="18" rx="9" fill="#94a3b8"/>
  <rect x="96" y="262" width="444" height="18" rx="9" fill="#cbd5e1"/>
  <rect x="96" y="318" width="172" height="44" rx="14" fill="#2563eb"/>
  <rect x="286" y="318" width="132" height="44" rx="14" fill="#e2e8f0"/>
  <rect x="704" y="164" width="396" height="320" rx="20" fill="#eff6ff" stroke="#93c5fd" stroke-width="2"/>
  <rect x="744" y="206" width="316" height="28" rx="14" fill="#60a5fa"/>
  <rect x="744" y="264" width="128" height="128" rx="18" fill="#bfdbfe"/>
  <rect x="900" y="264" width="160" height="18" rx="9" fill="#94a3b8"/>
  <rect x="900" y="300" width="124" height="18" rx="9" fill="#cbd5e1"/>
  <rect x="900" y="336" width="144" height="18" rx="9" fill="#cbd5e1"/>
  <rect x="96" y="522" width="260" height="92" rx="18" fill="#f1f5f9" stroke="#cbd5e1" stroke-width="2"/>
  <rect x="388" y="522" width="260" height="92" rx="18" fill="#f1f5f9" stroke="#cbd5e1" stroke-width="2"/>
  <rect x="680" y="522" width="260" height="92" rx="18" fill="#f1f5f9" stroke="#cbd5e1" stroke-width="2"/>
  <rect x="972" y="522" width="156" height="92" rx="18" fill="#f1f5f9" stroke="#cbd5e1" stroke-width="2"/>
  <text x="640" y="656" text-anchor="middle" font-family="Arial, sans-serif" font-size="22" fill="#64748b">Example UI placeholder - replace with final screen mockup</text>
</svg>
